# xmcd CD database file
#
# Track frame offsets:
#	183
#	14638
#	27905
#	41115
#	56113
#	68438
#	80305
#	91658
#	105105
#	116155
#	128813
#	142313
#	154903
#	166503
#	181493
#	195153
#
# Disc length: 2760 seconds
#
# Revision: 0
# Processed by: cddbd v1.5.1PL0 Copyright (c) Steve Scherf et al.
# Submitted via: CDex 1.51
#
DISCID=ca0ac610
DTITLE=Cab Calloway - The Most Important Recordings [CD 2)
DYEAR=1900
DGENRE=Jazz
TTITLE0=Margie
TTITLE1=Keep That Hi-De-Hi In Your Soul
TTITLE2=Nagasaki
TTITLE3=Wedding Of Mr. And Mrs. Swing
TTITLE4=Swing, Swing, Swing
TTITLE5=Savage Rhythm
TTITLE6=At The Clam-Bake Carnival
TTITLE7=Jive
TTITLE8=Ratamacue
TTITLE9=Jumpin' Jive
TTITLE10=A Ghost Of A Chance
TTITLE11=Calling All Bars
TTITLE12=Jonah Joins The Cab
TTITLE13=Hey, Doc
TTITLE14=Hi De Ho Man
TTITLE15=I Beeped When I Shoulda Bopped
EXTD=
EXTT0=
EXTT1=
EXTT2=
EXTT3=
EXTT4=
EXTT5=
EXTT6=
EXTT7=
EXTT8=
EXTT9=
EXTT10=
EXTT11=
EXTT12=
EXTT13=
EXTT14=
EXTT15=
PLAYORDER=
